<?xml version="1.0" encoding="UTF-8"?><svg id="Ebene_2" xmlns="http://www.w3.org/2000/svg" viewBox="0 0 72.58 59.74"><defs><style>.cls-1{fill:#e20e18;}</style></defs><g id="Ebene_1-2"><g id="Ebene_1-3"><g><g><path class="cls-1" d="M65.38,4.87c-3.19-1.01-5.82-.82-7.81,.57-3.13,2.18-3.99,6.8-4.15,10.3-.06,1.3-.16,3.04-.26,4.93-.2,3.66-.43,7.8-.45,9.68-.07,5.97,4.16,9.26,7.01,10.02,.23,.06,.46,.11,.69,.15,.35,.05,.69,.08,1.04,.08,1.44,0,2.89-.46,4.17-1.32,2.92-1.98,4.87-5.82,5.5-10.83,.15-1.18,.33-2.37,.53-3.63l.03-.16c1.24-7.94,2.64-16.94-6.29-19.77Zm-5.89,3.08c.99-.6,2.21-.8,3.62-.57,.31,.05,.63,.12,.96,.2-2.62,1.64-5.16,3.44-7.57,5.36,.44-1.83,1.3-3.96,3-4.99Zm-3.5,8.66c.03-.46,.06-.93,.12-1.38,3.08-2.57,6.36-4.92,9.76-6.98,1.1,.55,1.95,1.29,2.59,2.25-1.44,1.1-3.08,1.97-4.69,2.83-.62,.33-1.25,.66-1.86,1.01-1.96,1.1-3.98,2.35-6,3.71,.03-.53,.06-1.01,.08-1.44Zm-.2,3.36c2.37-1.64,4.64-3.06,6.92-4.34,.58-.33,1.17-.64,1.81-.98,1.56-.83,3.17-1.68,4.64-2.77,.38,.98,.59,2.12,.66,3.48-.35,.16-.68,.36-.98,.54-.2,.12-.38,.24-.55,.32-1.67,.85-3.34,1.7-5,2.57-1.79,.93-3.42,1.8-4.97,2.66-.32,.18-.63,.36-.95,.54l-.11,.07c-.51,.3-1.08,.63-1.66,.92l.19-3.01Zm5.15,17.42c1.44-.56,2.86-1.18,4.28-1.83-1.28,1.34-2.77,1.99-4.28,1.83Zm5.97-4.3l-.88,.41c-2.36,1.1-4.79,2.23-7.29,3.06-.57-.37-1.11-.84-1.57-1.38,3.59-1.32,7.16-2.79,10.65-4.38-.25,.82-.56,1.58-.91,2.29Zm2.11-9.03l-.02,.11c-.17,1.08-.34,2.2-.47,3.26-.06,.46-.14,.93-.25,1.48-3.91,1.82-7.94,3.49-12,4.97-.6-1.1-.94-2.34-1.01-3.69,4.63-2.03,9.29-4.34,13.86-6.87-.04,.25-.07,.49-.11,.74Zm.39-2.63c-4.59,2.59-9.34,4.97-14.12,7.09,.04-.9,.1-2.15,.2-3.81,.72-.33,1.4-.72,2.07-1.09l.09-.05c1.53-.86,3.12-1.73,4.86-2.65,1.42-.75,2.84-1.48,4.27-2.21,.71-.36,1.43-.73,2.15-1.09,.11-.06,.27-.15,.49-.28,.13-.08,.26-.16,.41-.24-.05,1.54-.24,3.1-.41,4.34Z"/><path class="cls-1" d="M60.73,42.74c-4.09-.64-8.54,1.59-9,4.49-.58,3.71,2.4,6.22,5.49,6.7,.49,.08,.98,.11,1.47,.11,3.6,0,6.99-1.99,7.39-4.57,.45-2.86-1.25-6.09-5.35-6.73Zm-4.23,2.78c-.68,.45-1.36,.91-2.03,1.39,.4-.61,1.16-1.08,2.03-1.39Zm-2.25,3.44c1.77-1.33,3.6-2.55,5.45-3.65,.08-.05,.15-.11,.21-.18,.89,.1,1.67,.35,2.28,.73-2.38,1.52-4.87,2.93-7.39,4.22-.26-.34-.44-.72-.55-1.12Zm3.33,2.6c-.54-.09-1.04-.24-1.47-.45,2.46-1.28,4.87-2.67,7.17-4.14,.27,.47,.4,1.01,.39,1.58-1.99,1.12-4.04,2.13-6.09,3.01Z"/></g><path class="cls-1" d="M36.21,53.56c-.55-2.21-3.1-3.48-5.69-2.84-2.59,.64-4.25,2.96-3.7,5.17,.55,2.21,3.83,2.91,6.42,2.27,2.59-.64,3.52-2.39,2.97-4.6Zm-5.99-1.7c-.76,1.28-1.55,2.7-2.06,4.11-.07-.13-.14-.26-.17-.41-.37-1.5,.61-3.05,2.24-3.7Zm-.55,5.29c-.39-.14-.74-.33-1.02-.57,.56-1.72,1.59-3.47,2.51-4.98,.46-.07,.9-.05,1.32,.03-.06,.15-.12,.31-.19,.44-.33,.62-.76,1.18-1.1,1.79-.6,1.05-.96,2.21-1.51,3.29Zm2.11,.26c-.49,.03-.98,0-1.45-.09,.44-.9,.76-1.84,1.22-2.73,.13-.26,1.51-2.32,1.51-2.82,.44,.16,.83,.39,1.15,.69-.38,.84-.85,1.63-1.28,2.45-.42,.81-.74,1.68-1.14,2.5Zm1.02-.16c-.07,.02-.15,.03-.22,.05,.31-.69,.58-1.4,.93-2.07,.38-.74,.81-1.45,1.17-2.2,.15,.24,.27,.49,.34,.77,.41,1.66-.28,2.97-2.23,3.45Z"/><path class="cls-1" d="M29.53,50.13c-.5,.03-.86,.28-1.07,.62-.68,.21-1.29,.51-1.8,.91-.96,.74-1.52,1.74-1.67,2.98-.13,1.06,.14,2,.78,2.81,1.16,1.44,3.31,2.12,4.94,2.27,.19,.02,.38,.03,.57,.03,1.56,0,3.1-.59,4.13-1.61,.91-.9,1.34-2.06,1.23-3.33-.29-3.49-3.9-4.87-7.12-4.67Zm-1.73,4.44c.32-.96,1.23-1.44,2.73-1.44,.35,0,.74,.03,1.16,.08,.24,.03,.46,0,.65-.07,.57,.22,1.06,.58,1.37,1.17,.33,.63,.33,1.18,.01,1.63-.58,.82-2.05,1.16-3.08,1.01-.65-.09-2.23-.4-2.76-1.26-.2-.32-.23-.69-.08-1.12Z"/><path class="cls-1" d="M35.35,38.19c-.09-.31-.18-.61-.27-.91-.56-1.86-1.08-3.63-.74-5.49,.19-.4,.42-.75,.66-1.08,.12-.17,.39-.46,.72-.84,1.51-1.69,4.75-5.33,6.21-9.67,.74-1.5,1.21-3.1,1.09-5.1-.02-.42-.22-.77-.53-1-.67-3.79-3.39-7.11-8.11-9.86C24.66-1.46,16.74-.37,11.8,1.53,6.24,3.69,2.4,7.79,1.47,10.74l-.15,.49c-1.72,5.47-2.67,8.49,3.12,13.84,1.74,1.61,3.67,2.24,5.57,1.84,2.72-.58,5.15-3.22,7.05-7.64,.85-1.98,2.07-3.06,3.63-3.21,2.35-.23,4.81,1.67,6.1,3.54,.98,1.42,1.3,2.78,.87,3.65-.53,1.07-2.01,2.5-3.73,4.17-3.85,3.73-8.65,8.38-7.1,12.87,1.21,3.52,3.57,6.3,6.35,7.88,1.47,1.05,3.17,1.72,4.96,1.72,1.28,0,2.61-.36,3.92-1.13,1.87-.87,3.34-2.36,4.06-4.2,.81-2.07,.59-4.28-.6-6.06-.07-.1-.12-.19-.18-.28ZM9.14,12.03l.53-.64c1.1-1.33,2.07-2.77,3.01-4.17,.76-1.12,1.54-2.28,2.38-3.37,.48-.07,.97-.1,1.44-.11,.81,0,1.65,0,2.51,.04-.69,1.01-1.4,2.01-2.11,3.01-1.44,2.03-2.92,4.13-4.27,6.26-.4,.64-.8,1.28-1.19,1.93-.72,1.17-1.46,2.38-2.25,3.54-.55,.8-.96,1.66-1.37,2.5-.35,.72-.7,1.47-1.14,2.16-1.42-.72-2.59-1.87-3.23-3.2,1.55-2.93,3.57-5.37,5.71-7.95Zm-.09,9.26c.48-.95,.98-1.93,1.61-2.83,.67-.95,1.26-1.96,1.83-2.94,.37-.63,.74-1.26,1.13-1.87,1.34-2.12,2.82-4.22,4.26-6.24,.83-1.18,1.67-2.36,2.48-3.55,1.33,.09,2.65,.24,3.94,.44-1.71,2.8-3.31,5.72-4.77,8.69-.24,.07-.47,.16-.67,.26-2.73,1.35-4.02,4.45-5.06,6.94-.65,1.56-1.21,2.9-1.9,3.24-1.22,.59-2.68,.66-4.13,.2,.48-.77,.89-1.57,1.29-2.34Zm2.61-14.65c-1.02,1.5-2.07,3.05-3.26,4.46-2.16,2.57-3.96,4.78-5.45,7.35-.08-.45-.09-.89-.04-1.31h0c.46-4.22,4.4-11.03,10.41-12.89-.57,.79-1.12,1.6-1.65,2.38Zm19.04-.66c-1.83,2.78-3.79,5.46-5.83,7.99-1.34-.78-2.67-1.19-3.88-1.19h-.05c1.42-2.83,2.96-5.6,4.6-8.26,1.92,.37,3.65,.86,5.16,1.47Zm-2.4,10.91c-.73-.87-1.56-1.65-2.44-2.28,2.08-2.58,4.07-5.32,5.93-8.15,1.28,.61,2.33,1.31,3.15,2.09-2.04,2.89-4.27,5.7-6.64,8.34Zm6.17,2.09c-.57,.49-1.2,.97-1.81,1.43-.64,.49-1.3,.99-1.92,1.52-.15-1.3-.75-2.71-1.72-4.1,2.38-2.65,4.64-5.47,6.72-8.4,.21,.27,.39,.54,.53,.82,.88,1.63,1.8,3.32,2.42,4.93-1.59,1.5-2.94,2.71-4.22,3.8Zm-2,25.7c-1.51,2.28-3.47,2.48-4.84,2.25-.73-.12-1.45-.39-2.15-.78,2.58-1.67,5.22-3.35,7.89-5.03,.11,1.16-.09,2.33-.9,3.56Zm-.92-14.17c-.54,1.2-.63,2.35-.29,3.5,.03,.11,.07,.21,.1,.32,.04,.25,.1,.5,.16,.74-2.14,1.92-4.5,3.61-6.54,5.01l-3.24,2.23c-.35-.64-.64-1.31-.82-1.99-.22-.85-.27-1.68-.18-2.47,3.37-2.75,7.12-5.1,10.8-7.34Zm-9.25,12.68c.39-.25,.8-.49,1.14-.69,.31-.18,.56-.33,.69-.42l.55-.38c.9-.62,1.79-1.23,2.68-1.86,1.72-1.22,3.2-2.38,4.54-3.55,.14,.41,.3,.82,.45,1.22,.3,.79,.6,1.58,.8,2.35-2.97,1.86-5.9,3.73-8.73,5.57-.81-.62-1.52-1.4-2.12-2.26Zm11.15-21.92c.61-.47,1.25-.95,1.83-1.45,1.17-.99,2.39-2.09,3.83-3.43,.29,1.01,.41,1.92,.38,2.76-.86,1.86-2.28,3.5-3.66,5.12-1.15,1.34-2.32,2.71-3.19,4.2l-.59,.36c-3.2,1.95-6.48,3.96-9.55,6.2,2.75-2.94,7.21-7.75,8.11-11.39,.86-.85,1.87-1.62,2.85-2.37Z"/><path class="cls-1" d="M13.04,1.57C6,3.75-1.26,11.71,1.5,19.63c1.16,3.33,4.49,5.5,8.02,5.06,5.82-.72,6.68-7.66,11.8-9.41,1.35-.46,.77-2.61-.59-2.15-5.41,1.85-9,12.79-15.14,7.95C-1.62,15.39,7.72,5.55,13.63,3.72c1.37-.42,.78-2.57-.59-2.15h0Z"/></g></g></g></svg>