<?xml version="1.0" encoding="UTF-8"?><svg id="Ebene_2" xmlns="http://www.w3.org/2000/svg" viewBox="0 0 52.05 59.47"><defs><style>.cls-1{fill:#e20e18;}</style></defs><g id="Ebene_1-2"><g id="Ebene_1-3"><path class="cls-1" d="M51.64,44.67h0c-.99-2-3-3.72-4.77-5.24-.51-.44-1-.86-1.45-1.28-.25-.23-.52-.5-.81-.79-1.5-1.51-3.54-3.57-5.82-2.69-2.18,.85-4.18,2.85-5.74,4.64l-14.17-19.31c3.26-1.4,7.97-3.51,6.22-7.93-.76-1.92-1.93-3.76-3.06-5.53-.51-.79-1.01-1.58-1.46-2.36-.14-.24-.28-.51-.43-.78C19.3,1.8,18.26-.19,15.96,.01c-1.02,.09-1.98,.64-2.83,1.13-.23,.13-.46,.26-.68,.38-1.35,.71-2.71,1.42-4.07,2.13l-.81,.42c-1.94,1-3.95,2.04-5.51,3.64-4.01,4.13-1.35,8.65,.99,12.65l.18,.3c7.18,12.26,13.99,21.69,21.43,29.67,2.03,2.18,3.94,4.12,5.85,5.92,1.74,1.65,3.71,3.17,6.32,3.23,.06,0,.11,0,.17,0,4.54,0,8.27-4.02,11.28-7.26,.53-.58,1.05-1.13,1.54-1.63,1.35-1.38,3.01-3.5,1.82-5.91ZM21.98,14.47c.06-.31,.11-.63,.18-.94,.04,.43-.03,.8-.21,1.11,.01-.06,.02-.11,.03-.17Zm16.53,24.33c1.12-.74,1.68-.8,2.48-.18-.12,.18-.19,.39-.22,.62-.11,.93-.26,1.88-.4,2.84-.29,1.91-.58,3.88-.66,5.83-.34-.3-.63-.57-.91-.86-.18-.19-.36-.38-.54-.58,.14-1.4,.21-2.81,.29-4.19,.04-.69,.08-1.38,.12-2.07,.03-.52-.17-.93-.47-1.21,.1-.08,.21-.15,.31-.22Zm-2.92,2.63c-.02,.2-.03,.4-.05,.6-.02,.29-.05,.57-.07,.86-.17-.26-.33-.51-.49-.77,.21-.24,.41-.47,.6-.69ZM18.15,12.34c.04-.61,.08-1.21,.15-1.77l.4-3.48,.69,1.18c.2,.34,.46,.74,.75,1.17l.07,.1c-.7,2.07-1.37,4.5-1.19,6.94,0,.05,.01,.1,.02,.14-.43,.18-.87,.35-1.3,.51-.15,.06-.29,.11-.43,.17,.62-1.5,.74-3.26,.85-4.96Zm-4.08-.1c.45-2.02,.66-4.15,.85-6.21,.08-.8,.15-1.59,.24-2.37,.43-.16,.77-.24,1.03-.26l-.95,6.8c-.08,.56-.19,1.15-.3,1.75-.12,.65-.24,1.31-.34,1.98-.19-.37-.38-.76-.58-1.17,.04-.17,.05-.34,.03-.52Zm-2.14-7.09c-.03,.19-.06,.39-.09,.58-.08,.52-.17,1.04-.25,1.56-.23-.53-.46-1.05-.69-1.58,.34-.19,.68-.38,1.02-.56Zm22.41,50.08c-2.62-1.84-4.94-4.44-7.18-6.97-.48-.54-.96-1.08-1.43-1.6-5.42-5.96-10.41-12.49-14.85-19.41-2.16-3.37-4.64-7.29-6.75-11.23-1.32-2.48-1.42-4.17-.32-5.64,1.03-1.38,2.66-2.25,4.26-3.09,.05-.02,.1-.05,.14-.08,1.13,3.94,3.34,8.03,6.89,12.8,.02,.3,.13,.6,.33,.86l16.24,22.11c.23,.31,.56,.52,.94,.59,.83,1.63,1.76,3.12,2.78,4.43,.09,.19,.23,.36,.4,.5,.18,.22,.36,.43,.55,.64,1.67,1.88,3.46,3.73,5.42,4.7-2.94,2.47-5.24,2.89-7.4,1.38Zm11.1-12.57c-.13,.85-.28,1.71-.44,2.58-.36,2.06-.74,4.18-.87,6.28-.6-.59-1.26-1.12-1.87-1.58,.67-2.41,.89-4.98,1.11-7.48,.05-.53,.09-1.05,.14-1.57,.06,.05,.11,.1,.16,.15,.33,.31,.73,.65,1.17,1.02,.2,.17,.4,.34,.61,.52,0,.03-.01,.06-.01,.09Zm2.3,5.3c.11-.8,.21-1.6,.3-2.38l.03-.25s.04,.07,.06,.1c.4,.77,.29,1.56-.39,2.53Z"/></g></g></svg>